<svg xmlns="http://www.w3.org/2000/svg" xmlns:xlink="http://www.w3.org/1999/xlink" viewBox="0 0 154.5 154.5" height="154.5" width="154.5" data-background-color="#f8f5f0" preserveAspectRatio="xMidYMid meet" id="tight-bounds"><g><svg/><mask id="38ebe580-58a2-4a18-ad62-9b31d34fe8fe"><svg xmlns:xlink="http://www.w3.org/1999/xlink" viewBox="0 0 154.5 154.5" height="154.5" width="154.5" data-background-color="#f8f5f0" preserveAspectRatio="xMidYMid meet" id="SvgjsSvg1224"><g><svg/></g><g><svg viewBox="0 0 154.5 154.5" height="154.5" width="154.5"><g transform="matrix(1,0,0,1,39.0576,61.93048579387187)"><svg viewBox="0 0 76.3848 30.639028412256266" height="30.639028412256266" width="76.3848"><g><svg viewBox="0 0 76.3848 30.639028412256266" height="30.639028412256266" width="76.3848"><g><svg viewBox="0 0 76.3848 30.639028412256266" height="30.639028412256266" width="76.3848"><g id="SvgjsG1223"><svg viewBox="0 0 76.3848 30.639028412256266" height="30.639028412256266" width="76.3848" id="SvgjsSvg1222"><g><svg viewBox="0 0 76.3848 30.639028412256266" height="30.639028412256266" width="76.3848"><g transform="matrix(1,0,0,1,0,0)"><svg width="76.3848" viewBox="0.8100000023841858 -34.349998474121094 87.63999938964844 35.15999984741211" height="30.639028412256266" data-palette-color="url(#710a66f4-8ab5-4245-8f68-d0778aec88fc)"><path d="M29.15-33.54L29.15-25.56 26.2-25.56 25.49-30.25Q25.32-31.1 24.66-31.1L24.66-31.1 17.5-31.1 17.5-3.44Q17.5-3.08 17.76-2.73 18.02-2.39 18.55-2.34L18.55-2.34 21.75-2.15 21.75 0 8.2 0 8.2-2.15 11.4-2.34Q11.94-2.39 12.19-2.73 12.45-3.08 12.45-3.44L12.45-3.44 12.45-31.1 5.25-31.1Q4.52-31.1 4.39-30.25L4.39-30.25 3.71-25.56 0.81-25.56 0.81-33.54 29.15-33.54ZM54.05-9.4L54.05-9.4Q54.05-6.88 52.7-4.54 51.34-2.2 48.42-0.7 45.51 0.81 40.79 0.81L40.79 0.81Q38.11 0.81 36.11 0.34 34.1-0.12 33.01-0.59 31.91-1.05 31.91-1.05L31.91-1.05 31.91-9.91 35.06-9.91 35.72-4.25Q35.76-3.96 36.03-3.61 36.3-3.27 36.55-3.15L36.55-3.15Q36.67-3.13 37.97-2.56 39.28-2 41.6-2L41.6-2Q44.8-2 46.87-3.56 48.95-5.13 48.95-7.91L48.95-7.91Q48.95-9.42 48.11-10.56 47.26-11.69 45.92-12.57 44.58-13.45 43.05-14.17 41.53-14.89 40.16-15.55L40.16-15.55Q38.11-16.53 36.35-17.64 34.59-18.75 33.52-20.39 32.44-22.02 32.44-24.56L32.44-24.56Q32.44-27.54 33.96-29.74 35.47-31.93 38.08-33.14 40.7-34.35 43.99-34.35L43.99-34.35Q46.68-34.35 48.73-33.83 50.78-33.3 52.37-32.79L52.37-32.79 52.81-32.64 52.81-24.85 49.95-24.85 49.19-29.64Q49.14-29.98 48.89-30.14 48.63-30.3 48.41-30.52L48.41-30.52Q48.22-30.66 47.2-31.15 46.19-31.64 44.06-31.64L44.06-31.64Q41.06-31.64 39.33-29.97 37.6-28.3 37.6-25.76L37.6-25.76Q37.6-23.46 39.39-21.95 41.18-20.43 44.55-19.14L44.55-19.14Q49.09-17.43 51.57-15.3 54.05-13.16 54.05-9.4ZM88.45-2.1L88.45 0.15Q88.13 0.17 87.2 0.49 86.27 0.81 85.15 0.81L85.15 0.81Q82.59 0.81 81.09-0.05 79.58-0.9 78.77-2.31 77.95-3.71 77.47-5.4 77-7.08 76.51-8.75 76.02-10.42 75.17-11.83 74.31-13.23 72.77-14.09 71.24-14.94 68.6-14.94L68.6-14.94Q67.82-14.94 67.12-14.89 66.43-14.84 66.35-14.84L66.35-14.84 66.35-3.44Q66.35-3.08 66.61-2.73 66.87-2.39 67.4-2.34L67.4-2.34 70.04-2.15 70.04 0 57.61 0 57.61-2.15 60.2-2.34Q60.74-2.39 61.02-2.73 61.3-3.08 61.3-3.44L61.3-3.44 61.3-30.1Q61.3-30.47 61.02-30.82 60.74-31.18 60.2-31.2L60.2-31.2 57.61-31.4 57.61-33.54 70.65-33.54Q76.34-33.54 79.62-31.58 82.91-29.61 82.91-24.66L82.91-24.66Q82.91-22.05 81.73-20.37 80.56-18.7 78.69-17.75 76.83-16.8 74.7-16.31L74.7-16.31Q77.02-15.75 78.33-14.71 79.63-13.67 80.27-12.35 80.9-11.04 81.22-9.62 81.54-8.2 81.86-6.86 82.17-5.52 82.82-4.44 83.47-3.37 84.79-2.73 86.1-2.1 88.45-2.1L88.45-2.1ZM77.46-24.44L77.46-24.44Q77.46-27.64 75.42-29.37 73.38-31.1 68.65-31.1L68.65-31.1 66.35-31.1 66.35-17.41Q66.47-17.41 67.37-17.38 68.26-17.36 68.84-17.36L68.84-17.36Q73.02-17.36 75.24-18.9 77.46-20.43 77.46-24.44Z" opacity="1" transform="matrix(1,0,0,1,0,0)" fill="white" class="wordmark-text-0" id="SvgjsPath1221"/></svg></g></svg></g></svg></g></svg></g></svg></g></svg></g><g><path xmlns="http://www.w3.org/2000/svg" d="M0 154.5v-154.5h154.5v154.5zM151.737 151.737v-148.974h-148.974v148.974z" fill="black" fill-rule="nonzero" stroke="none" stroke-width="1" stroke-linecap="butt" stroke-linejoin="miter" stroke-miterlimit="10" stroke-dasharray="" stroke-dashoffset="0" font-family="none" font-weight="none" font-size="none" text-anchor="none" style="mix-blend-mode: normal"/></g></svg></g><defs><mask/></defs></svg></mask><linearGradient x1="0.054" x2="0.941" y1="0.5" y2="0.5" id="710a66f4-8ab5-4245-8f68-d0778aec88fc"><stop stop-color="#0f3054" offset="0"/><stop stop-color="#3b8dcb" offset="0.498"/><stop stop-color="#0f3054" offset="1"/></linearGradient><rect width="154.5" height="154.5" fill="#000000" mask="url(#38ebe580-58a2-4a18-ad62-9b31d34fe8fe)" data-fill-palette-color="primary"/></g><g><svg viewBox="0 0 154.5 154.5" height="154.5" width="154.5"><g transform="matrix(1,0,0,1,39.0576,61.93048579387187)"><svg viewBox="0 0 76.3848 30.639028412256266" height="30.639028412256266" width="76.3848"><g><svg viewBox="0 0 76.3848 30.639028412256266" height="30.639028412256266" width="76.3848"><g><svg viewBox="0 0 76.3848 30.639028412256266" height="30.639028412256266" width="76.3848"><g id="textblocktransform"><svg viewBox="0 0 76.3848 30.639028412256266" height="30.639028412256266" width="76.3848" id="textblock"><g><svg viewBox="0 0 76.3848 30.639028412256266" height="30.639028412256266" width="76.3848"><g transform="matrix(1,0,0,1,0,0)"><svg width="76.3848" viewBox="0.8100000023841858 -34.349998474121094 87.63999938964844 35.15999984741211" height="30.639028412256266" data-palette-color="url(#710a66f4-8ab5-4245-8f68-d0778aec88fc)"/></g></svg></g></svg></g></svg></g></svg></g></svg></g><g><path xmlns="http://www.w3.org/2000/svg" d="M0 154.5v-154.5h154.5v154.5zM151.737 151.737v-148.974h-148.974v148.974z" fill="#000000" fill-rule="nonzero" stroke="none" stroke-width="1" stroke-linecap="butt" stroke-linejoin="miter" stroke-miterlimit="10" stroke-dasharray="" stroke-dashoffset="0" font-family="none" font-weight="none" font-size="none" text-anchor="none" style="mix-blend-mode: normal" data-fill-palette-color="tertiary"/></g></svg></g><defs><mask/></defs></svg>